<svg xmlns="http://www.w3.org/2000/svg" viewBox="0 0 128 128" role="img" aria-labelledby="title desc">
  <title id="title">VSCopilotSwitch</title>
  <desc id="desc">由 VS 窗口、切换轨道和 Copilot 星点组成的应用标识</desc>
  <defs>
    <linearGradient id="shell" x1="20" x2="108" y1="18" y2="112" gradientUnits="userSpaceOnUse">
      <stop stop-color="#1f8fff" />
      <stop offset="0.55" stop-color="#6f5cff" />
      <stop offset="1" stop-color="#13c38b" />
    </linearGradient>
    <linearGradient id="switch" x1="31" x2="99" y1="47" y2="82" gradientUnits="userSpaceOnUse">
      <stop stop-color="#ffffff" />
      <stop offset="1" stop-color="#eaf3ff" />
    </linearGradient>
  </defs>
  <rect width="128" height="128" rx="30" fill="#0d1117" />
  <path fill="url(#shell)" d="M22 31c0-7.2 5.8-13 13-13h58c7.2 0 13 5.8 13 13v66c0 7.2-5.8 13-13 13H35c-7.2 0-13-5.8-13-13V31Z" />
  <path fill="#0d1117" fill-opacity=".22" d="M22 45h84v10H22z" />
  <circle cx="38" cy="36" r="4" fill="#fff" fill-opacity=".86" />
  <circle cx="52" cy="36" r="4" fill="#fff" fill-opacity=".68" />
  <circle cx="66" cy="36" r="4" fill="#fff" fill-opacity=".5" />
  <path fill="url(#switch)" d="M41 67c0-9.4 7.6-17 17-17h20c9.4 0 17 7.6 17 17s-7.6 17-17 17H58c-9.4 0-17-7.6-17-17Z" />
  <circle cx="78" cy="67" r="12" fill="#111827" />
  <path fill="#fff" d="M55.4 74.4 47.8 67l7.6-7.4 4.2 4.4-3.2 3 3.2 3-4.2 4.4Zm24.1 18.8 3.8-8.3 8.3-3.8-8.3-3.8-3.8-8.3-3.8 8.3-8.3 3.8 8.3 3.8 3.8 8.3Z" />
  <path fill="#0d1117" d="m70.7 59.6-8 22.2-5.4-1.9 8-22.2 5.4 1.9Z" opacity=".86" />
</svg>
